<svg xmlns="http://www.w3.org/2000/svg" viewBox="0 0 84.13 100.03"><defs><style>.cls-1,.cls-3,.cls-4{fill:#fff;}.cls-1,.cls-2{isolation:isolate;}.cls-2{fill:#b62025;}.cls-4{font-size:20px;font-family:PlantagenetCherokee, Plantagenet Cherokee;}</style></defs><g id="Layer_2" data-name="Layer 2"><g id="Layer_1-2" data-name="Layer 1"><g id="shield"><path class="cls-1" d="M83.65,16.21S72.93,8.65,72.93.65C72.93.65,66.5,6,42.06,6S11.19.65,11.19.65c0,8-10.72,15.56-10.72,15.56C8.4,24.43,6.9,43.77,4.33,60.66s11.15,23.56,21,27.57A52.54,52.54,0,0,1,42.06,99.58,52.54,52.54,0,0,1,58.78,88.23c9.87-4,23.59-10.67,21-27.57S75.72,24.43,83.65,16.21Z"/><path id="lshield" class="cls-2" d="M41.08,93.62a53.73,53.73,0,0,0-13.6-8.24C17.32,81.25,8.09,75.85,8.09,64.61a23.81,23.81,0,0,1,.26-3.48,155.82,155.82,0,0,0,2.11-23c0-8.33-1.22-16-4.72-21.39,2.75-2.36,6.92-6.55,8.67-11.53,4.29,1.65,12.34,3.65,26.5,3.83"/><path id="rshield" class="cls-2" d="M43.05,93.62a53.83,53.83,0,0,1,13.59-8.24C66.81,81.25,76,75.85,76,64.61a23.88,23.88,0,0,0-.27-3.48,155.82,155.82,0,0,1-2.1-23c0-8.33,1.21-16,4.71-21.39-2.75-2.36-6.91-6.55-8.67-11.53C65.42,6.87,57.37,8.87,43.22,9.05"/><path class="cls-3" d="M27.24,70.18c-.72,0-1-.46-1.15-3.46C26,64.88,25.9,62.4,25.84,60c-.07-2.84-.16-6.2-.35-8A88.43,88.43,0,0,0,23.91,62.7l0,.39H21.33l-.16-.24a2.51,2.51,0,0,0-.76-.77,2,2,0,0,0-.62.74l-.14.27H16.27v-.84h2.61a2,2,0,0,1,1.52-1,2.24,2.24,0,0,1,1.63,1h.79c.09-.92.35-3.31.69-5.69.92-6.43,1.47-6.43,2.12-6.43.9,0,1.11.33,1.35,9.86.08,3.13.19,7.23.46,8.84a31.81,31.81,0,0,0,1.76-6.22l.07-.36H30.4c.55-1.64,1.2-1.64,1.45-1.64s.9,0,1.45,1.64h3v.84H32.39l-.1-.33a5.72,5.72,0,0,0-.44-1.09,5.5,5.5,0,0,0-.44,1.08l-.1.34H30.25C28.84,70.18,27.68,70.18,27.24,70.18Z"/><text class="cls-4" transform="translate(18.72 37.54)">C</text><g id="snake"><path class="cls-3" d="M59,34.83c1.11.45,2.22.93,3.27,1.46.09-1.56,0-9.23.79-10.51L60.6,24.37l-2.45,1.41C59,27.06,58.91,33.32,59,34.83Z"/><path class="cls-3" d="M59.68,57.41l.45,14.89c.37.55.82.53,1.19,0,.1-3.52.25-9.66.34-13.11A6.21,6.21,0,0,0,59.68,57.41Z"/><path class="cls-3" d="M60.37,38.78c-.38-.24-.81-.48-1.28-.72.14,4.64.35,11.55.49,16.13.7.44,1.45.9,2.18,1.4.11-4.36.28-10.9.39-15.21A5.84,5.84,0,0,0,60.37,38.78Z"/><path class="cls-3" d="M56.88,67.61a28.42,28.42,0,0,0,2.77-1.79l0-1.58Z"/><path class="cls-3" d="M62,56.13c-2.65-2.38-8.36-3-2.87-6.34l-.1-3.21c-16.52,10.89,4.46,6.18,2.83,14.8l-.07,2.78C66,61,66,58.65,62,56.13Z"/><path class="cls-3" d="M53.64,35.75c-7.11-2.08-6.27-6.08-4.58-8s2.08-4.31,5.78-3.55c6.95.1-.6,3.73-1.54,4s-2.91,1-1.67,3.65c4.65,3.45,24,6.65,10.62,15.59l.11-4.1C64.48,38.54,57.46,37.14,53.64,35.75Z"/><path class="cls-3" d="M52.84,24.8c.09.3,1,.12,1.14,0Z"/></g><path id="heart" class="cls-3" d="M62.2,20a1,1,0,0,0-1.6.41A1,1,0,0,0,59,20a1.39,1.39,0,0,0,.31,2.16c.27.22.82.61,1.11.9a1,1,0,0,1,.17.19h0a1,1,0,0,1,.17-.19c.29-.29.84-.68,1.11-.9A1.39,1.39,0,0,0,62.2,20Z"/><path class="cls-1" d="M10.88,0V.65C10.88,8.4.4,15.88.29,16l-.29.2.25.26C8.38,24.86,6.3,45.69,4,60.62,1.26,78.79,17.44,85.36,25.22,88.51A52.74,52.74,0,0,1,41.84,99.79l.22.24.23-.24A52.77,52.77,0,0,1,58.9,88.51c7.78-3.15,24-9.72,21.2-27.89-2.27-14.94-4.36-35.77,3.78-44.2l.25-.26-.3-.2C83.73,15.88,73.24,8.4,73.24.65V0l-.5.41C72.67.47,66,5.68,42.06,5.68S11.45.47,11.39.41ZM83.21,16.27C78.85,21,77.4,29,77.4,38a156.16,156.16,0,0,0,2.09,22.72,26.55,26.55,0,0,1,.31,4c0,12.84-10.54,19-21.13,23.26a53.25,53.25,0,0,0-16.61,11.2,53.11,53.11,0,0,0-16.61-11.2C14.86,83.64,4.32,77.52,4.32,64.68a26.55,26.55,0,0,1,.31-4A154.78,154.78,0,0,0,6.72,38c0-9-1.45-17-5.81-21.72C2.54,15.07,11,8.47,11.45,1.21,13.28,2.38,21,6.29,42.06,6.29S70.84,2.38,72.67,1.21C73.1,8.47,81.59,15.07,83.21,16.27Z"/></g></g></g></svg>