<svg width="100" height="101" viewBox="0 0 100 101" fill="none" xmlns="http://www.w3.org/2000/svg">
    <rect y="0.5" width="100" height="100" rx="10" fill="#EFF6FF"/>
    <g clip-path="url(#clip0_50_46)">
    <path d="M19.7431 51.1402C21.3562 50.9721 22.3018 50.9721 23.1918 50.8041C24.0818 50.6361 24.9718 50.356 25.8618 50.132C28.7543 57.4135 32.4256 58.4777 37.1537 53.4367C41.1587 54.893 43.7175 52.8765 45.6087 49.4038C45.8868 48.8997 46.165 48.4516 46.4987 48.0035C47.8337 46.2111 48.8906 46.3231 49.7806 48.4516C52.6731 55.3411 57.5681 59.654 65.0219 60.8302C74.8119 62.3986 84.2125 56.3493 86.8269 46.8272C89.4969 37.1372 84.435 26.943 75.2012 23.2462C65.6894 19.4374 54.6756 23.8063 50.4481 33.2724C49.5581 35.2888 48.5012 36.129 46.4987 35.7369C44.8856 35.4568 43.2169 36.129 41.6037 36.353C41.1031 36.409 40.4912 36.6331 40.0462 36.353C37.71 34.7847 36.0412 35.5128 33.9831 35.3448C30.0337 31.9841 27.5306 32.0401 23.8037 35.9609C22.9137 36.9131 22.0793 37.9213 21.0781 38.7615C20.2993 39.3777 19.2981 39.7137 18.2968 40.2178C16.8506 31.8721 22.0237 21.3418 29.5331 16.6928C36.0969 12.6039 45.5531 11.4837 54.9537 19.6054C59.1256 15.8526 63.9094 13.5001 69.75 13.6122C77.315 13.7802 83.0444 17.365 87.1606 23.5263C92.5562 31.48 93.1681 40.1618 90.4425 49.1797C88.0506 57.0214 83.545 63.5748 78.205 69.6241C71.975 76.6256 64.855 82.5629 57.1231 87.716C55.7325 88.6122 54.5644 88.9482 53.0625 87.94C41.715 80.2664 31.5356 71.4165 24.1931 59.654C22.58 57.0214 21.3562 54.2208 19.7431 51.1402Z" fill="#2F499F"/>
    <path d="M52.2281 39.3777C54.2862 28.7355 63.0194 24.8706 69.3606 25.5428C77.76 26.439 83.99 33.3285 83.9344 41.5062C83.8787 49.2919 77.76 56.4054 70.3619 57.2456C61.2394 58.3098 54.4531 53.2127 52.1169 43.1866C50.2812 43.1866 48.3344 43.0745 46.4431 43.2426C45.7756 43.2986 44.9412 43.8587 44.4962 44.4188C43.495 45.7631 42.7162 47.2194 41.715 48.6197C40.2131 50.7482 38.7669 50.5801 37.6544 48.1716C37.3206 47.4995 37.0425 46.8273 36.5975 45.7071C35.7075 47.4995 35.1512 49.0118 34.2612 50.3561C33.6494 51.2523 32.7594 52.4845 31.8694 52.5966C30.2006 52.8206 30.0894 51.0282 29.7556 49.796C29.1437 47.4995 28.5875 45.147 28.0312 42.7385C27.6419 42.9065 27.4194 42.9625 27.3081 43.0745C24.805 47.1634 20.9112 47.4435 16.6837 47.2194C13.1794 46.9954 9.61937 47.1634 6.115 47.1634C4.78 47.1634 3 47.4435 3 45.371C3 43.2426 4.72438 43.3546 6.22625 43.3546C10.6762 43.3546 15.1262 43.2986 19.5762 43.4106C21.0781 43.4666 22.1906 43.0185 23.1919 41.8423C24.4712 40.386 25.8062 38.9296 27.2525 37.6414C28.9212 36.073 30.2006 36.3531 30.8681 38.6496C31.48 40.61 31.925 42.5704 32.5369 45.035C33.4269 43.1305 34.0387 41.6742 34.7619 40.3299C35.8744 38.3135 37.4319 38.3695 38.4887 40.3299C39.045 41.3382 39.4344 42.4584 39.9906 43.6907C42.3269 38.9857 46.3319 39.0977 50.3925 39.3777C50.9487 39.3777 51.505 39.3777 52.2281 39.3777ZM74.7006 41.5062C74.7006 37.6974 71.8081 34.7848 68.0256 34.7848C64.2431 34.7848 61.295 37.6974 61.295 41.4502C61.295 45.091 64.3544 48.2836 67.97 48.2836C71.5856 48.2836 74.7006 45.147 74.7006 41.5062Z" fill="#2F499F"/>
    <path d="M67.97 44.5308C66.3013 44.5308 64.9663 43.1865 64.9106 41.5622C64.855 39.8818 66.4125 38.3135 68.0812 38.3135C69.6944 38.3695 71.2519 39.9938 71.1406 41.6182C71.0294 43.2425 69.6387 44.5308 67.97 44.5308Z" fill="#2F499F"/>
    </g>
    <defs>
    <clipPath id="clip0_50_46">
    <rect width="89" height="75" fill="white" transform="translate(3 13.5)"/>
    </clipPath>
    </defs>
    </svg>
    